<?xml version="1.0" standalone="no"?>
<!DOCTYPE svg PUBLIC "-//W3C//DTD SVG 20010904//EN"
 "http://www.w3.org/TR/2001/REC-SVG-20010904/DTD/svg10.dtd">
<svg version="1.0" xmlns="http://www.w3.org/2000/svg"
 width="700.000000pt" height="700.000000pt" viewBox="0 0 700.000000 700.000000"
 preserveAspectRatio="xMidYMid meet">
<metadata>
Created by potrace 1.14, written by Peter Selinger 2001-2017
</metadata>
<g transform="translate(0.000000,700.000000) scale(0.100000,-0.100000)"
fill="#000000" stroke="none">
<path d="M4576 6365 c-41 -41 -111 -167 -159 -285 -135 -335 -119 -658 48
-997 l50 -103 -168 -167 c-107 -107 -164 -158 -158 -141 11 28 17 74 29 193
26 257 -44 552 -197 828 -90 161 -128 193 -205 167 -39 -13 -78 -65 -151 -203
-128 -240 -185 -472 -180 -722 5 -215 56 -410 167 -633 l62 -123 -149 -149
c-82 -82 -151 -148 -153 -145 -2 2 1 19 7 37 5 18 13 47 16 63 3 17 10 59 17
95 19 106 16 371 -7 480 -2 14 -10 49 -16 79 -37 177 -147 437 -255 602 -52
78 -93 105 -145 94 -29 -7 -87 -66 -113 -115 -7 -14 -31 -57 -53 -96 -109
-194 -192 -450 -219 -669 -8 -72 -8 -235 0 -288 4 -25 2 -36 -4 -32 -5 3 -10
13 -10 20 0 28 -82 232 -139 347 -68 135 -153 268 -183 287 -12 7 -39 13 -61
13 -48 -1 -73 -25 -149 -147 -132 -215 -252 -532 -283 -748 -3 -27 -9 -59 -11
-70 -9 -41 -13 -292 -4 -335 11 -61 -1 -44 -55 83 -87 203 -199 386 -249 406
-69 29 -102 10 -173 -97 -162 -249 -284 -580 -320 -869 -9 -77 -10 -303 0
-380 28 -234 117 -509 229 -715 67 -122 79 -144 99 -172 11 -14 19 -30 19 -35
0 -4 -15 -40 -34 -78 -153 -316 -166 -659 -35 -891 39 -69 103 -140 136 -152
78 -26 153 38 137 117 -4 16 -24 51 -47 77 -203 244 -120 687 200 1068 l24 29
42 -21 c23 -12 74 -39 112 -60 185 -100 419 -180 635 -218 194 -33 417 -24
665 26 83 17 312 98 420 149 121 58 279 152 318 190 32 31 40 74 22 118 -21
50 -218 169 -428 259 l-97 41 137 -1 c76 0 172 3 212 7 282 31 628 157 880
321 80 52 100 74 105 112 7 53 -17 89 -96 140 -71 47 -313 175 -353 187 -81
25 -233 86 -201 81 48 -7 245 -7 301 1 284 38 552 135 786 286 77 50 99 78 99
127 0 62 -75 119 -308 233 -162 79 -363 141 -543 166 -119 17 -360 9 -472 -17
-23 -5 -54 -11 -70 -14 -15 -2 -37 -8 -50 -11 -12 -4 42 57 128 144 82 83 154
151 159 151 5 0 53 -22 106 -50 126 -64 231 -104 355 -135 130 -32 156 -36
305 -39 155 -5 294 18 462 74 197 66 428 194 452 250 29 71 0 113 -134 192
-234 139 -512 220 -750 221 -127 0 -278 -18 -310 -38 -36 -22 11 30 151 171
l161 161 94 -47 c99 -51 288 -116 364 -125 25 -3 53 -8 62 -11 27 -8 206 -8
268 1 30 3 82 14 115 22 33 8 65 16 70 17 102 20 370 153 425 211 26 28 33 80
15 115 -37 72 -325 212 -530 257 -98 21 -311 25 -408 8 -94 -17 -199 -45 -211
-56 -6 -5 -16 -9 -24 -9 -7 0 -48 -16 -90 -37 -42 -20 -79 -37 -82 -37 -3 -1
-16 -8 -28 -15 -23 -12 -24 -12 -18 16 24 110 30 321 12 408 -42 194 -102 344
-201 506 -54 87 -128 105 -189 44z m147 -451 c36 -112 42 -153 41 -294 -2
-138 -19 -223 -76 -364 -28 -69 -33 -77 -44 -61 -14 19 -70 169 -78 207 -3 13
-10 48 -16 78 -33 163 -3 371 83 570 l19 45 23 -51 c12 -28 34 -86 48 -130z
m-783 -550 c46 -132 72 -266 72 -384 0 -196 -32 -332 -132 -557 -28 -63 -30
-61 -84 69 -76 184 -101 306 -100 488 0 171 39 332 121 510 l35 75 29 -60 c17
-33 43 -96 59 -141z m1860 -42 c111 -28 245 -81 233 -92 -14 -13 -131 -59
-207 -79 -213 -60 -457 -36 -655 64 l-44 22 79 31 c66 27 164 55 259 75 11 2
70 4 130 4 82 0 134 -7 205 -25z m-2629 -553 c35 -99 63 -209 77 -304 12 -83
5 -310 -12 -400 -23 -121 -76 -279 -135 -400 l-49 -100 -50 105 c-69 146 -117
292 -137 420 -4 25 -9 54 -11 65 -6 28 -5 252 1 295 21 154 73 323 147 480
l50 105 40 -80 c23 -44 58 -128 79 -186z m1884 -183 c62 -8 166 -32 225 -52
67 -23 193 -76 214 -90 17 -12 16 -13 -11 -27 -102 -53 -269 -109 -393 -132
-118 -22 -322 -10 -460 26 -67 18 -273 99 -289 114 -11 11 -5 17 35 35 250
114 463 153 679 126z m-2745 -192 c0 -1 15 -36 34 -76 61 -133 126 -345 142
-463 2 -16 6 -50 9 -75 7 -51 8 -264 2 -295 -3 -11 -7 -41 -11 -66 -12 -79
-16 -102 -37 -179 -32 -117 -77 -235 -136 -360 -64 -132 -57 -132 -124 6 -172
359 -222 697 -155 1049 26 137 118 385 195 523 l24 44 28 -53 c16 -29 29 -53
29 -55z m459 -723 c29 -71 108 -228 131 -261 l19 -26 -145 -145 c-79 -79 -144
-141 -144 -139 0 3 9 37 19 75 20 73 47 207 56 285 8 63 9 262 1 340 l-6 65
24 -70 c13 -38 33 -94 45 -124z m1671 154 c14 -3 41 -8 60 -11 113 -18 392
-120 468 -172 18 -12 -67 -59 -202 -110 -348 -133 -658 -137 -993 -13 -107 40
-243 103 -243 113 0 11 126 72 234 112 186 70 332 95 521 90 72 -1 141 -5 155
-9z m-2927 -240 c46 -93 95 -222 137 -360 11 -35 36 -168 45 -240 8 -57 8
-257 1 -295 -3 -14 -8 -47 -11 -75 -18 -151 -98 -392 -191 -574 -44 -86 -42
-87 -103 44 -83 175 -152 385 -167 503 -2 20 -7 51 -10 67 -11 48 -12 265 -3
336 15 107 17 120 44 224 27 108 79 251 130 355 46 95 66 132 70 128 2 -1 28
-52 58 -113z m2026 -198 c47 -22 129 -55 181 -74 l95 -33 -65 6 c-81 8 -267 8
-328 -1 -26 -3 -60 -7 -77 -10 -48 -6 -186 -35 -239 -51 -27 -8 -52 -14 -55
-14 -3 0 59 65 138 144 l144 144 60 -35 c33 -20 99 -54 146 -76z m186 -312
c138 -12 345 -64 480 -120 100 -42 245 -116 241 -124 -18 -28 -368 -174 -467
-195 -46 -10 -71 -15 -87 -20 -9 -3 -37 -8 -62 -11 -25 -3 -53 -8 -62 -11 -10
-3 -73 -7 -140 -8 -110 -3 -154 0 -292 20 -70 10 -225 53 -325 91 -93 34 -297
131 -290 137 52 44 384 180 494 202 11 2 45 9 75 16 70 15 71 15 160 23 41 4
76 8 77 9 4 4 122 -2 198 -9z m-1780 -160 c20 -49 57 -128 82 -175 26 -47 55
-102 67 -123 l20 -37 -100 -103 c-54 -56 -119 -120 -143 -142 -40 -36 -44 -38
-37 -15 9 29 26 98 31 120 2 8 8 33 13 55 28 107 43 370 28 479 -7 51 -5 47
39 -59z m784 -325 c64 -32 144 -68 179 -80 34 -13 62 -25 62 -27 0 -2 -9 -1
-21 2 -24 8 -300 9 -326 1 -10 -2 -45 -7 -78 -11 -50 -5 -201 -38 -280 -61
-11 -3 45 59 124 139 l144 145 40 -25 c21 -13 92 -51 156 -83z m194 -314 c118
-12 261 -43 372 -81 133 -45 359 -150 351 -164 -3 -4 -38 -24 -78 -44 -334
-165 -639 -228 -943 -194 -190 21 -413 90 -615 192 l-93 47 29 17 c78 47 242
117 374 159 83 26 122 36 230 57 14 3 63 8 110 11 47 4 86 7 87 8 4 4 113 -2
176 -8z"/>
</g>
</svg>
