<svg id="Layer_1" data-name="Layer 1" xmlns="http://www.w3.org/2000/svg" viewBox="0 0 24 24" stroke-width="1.5" width="24" height="24" color="#ffffff"><defs><style>.cls-637b72d8f95e86b59c579e94-1{fill:none;stroke:currentColor;stroke-miterlimit:10;}</style></defs><polyline class="cls-637b72d8f95e86b59c579e94-1" points="2.44 23.5 2.44 15.85 21.57 15.85 21.57 23.5"></polyline><line class="cls-637b72d8f95e86b59c579e94-1" x1="23.48" y1="15.85" x2="0.52" y2="15.85"></line><path class="cls-637b72d8f95e86b59c579e94-1" d="M12,10.11h0a4.78,4.78,0,0,1,4.78,4.78v1a0,0,0,0,1,0,0H7.22a0,0,0,0,1,0,0v-1A4.78,4.78,0,0,1,12,10.11Z"></path><path class="cls-637b72d8f95e86b59c579e94-1" d="M9.13,1.5h5.74a0,0,0,0,1,0,0V7.24A2.87,2.87,0,0,1,12,10.11h0A2.87,2.87,0,0,1,9.13,7.24V1.5A0,0,0,0,1,9.13,1.5Z"></path><line class="cls-637b72d8f95e86b59c579e94-1" x1="9.13" y1="5.33" x2="16.78" y2="5.33"></line><line class="cls-637b72d8f95e86b59c579e94-1" x1="12" y1="12.98" x2="12" y2="10.11"></line><line class="cls-637b72d8f95e86b59c579e94-1" x1="13.91" y1="17.76" x2="13.91" y2="23.5"></line><line class="cls-637b72d8f95e86b59c579e94-1" x1="10.09" y1="23.5" x2="10.09" y2="17.76"></line><line class="cls-637b72d8f95e86b59c579e94-1" x1="10.09" y1="20.63" x2="13.91" y2="20.63"></line></svg>