<?xml version="1.0" encoding="UTF-8" standalone="no"?>
<!DOCTYPE svg PUBLIC "-//W3C//DTD SVG 1.1//EN" "http://www.w3.org/Graphics/SVG/1.1/DTD/svg11.dtd">
<svg width="100%" height="100%" viewBox="0 0 1920 1080" version="1.1" xmlns="http://www.w3.org/2000/svg" xmlns:xlink="http://www.w3.org/1999/xlink" xml:space="preserve" xmlns:serif="http://www.serif.com/" style="fill-rule:evenodd;clip-rule:evenodd;stroke-linejoin:round;stroke-miterlimit:2;">
    <g transform="matrix(-1.67766,0.10967,-0.102945,-1.57479,1500.91,1691.16)">
        <path d="M665.077,225.692L1019.97,482.579L884.411,898.229L445.743,898.229L310.187,482.579L665.077,225.692Z" style="fill:rgb(127,141,133);"/>
    </g>
    <g transform="matrix(2.36954,0,0,2.35522,-1946.31,-662.018)">
        <path d="M1479.26,-26.719L1748.75,169.078L1645.82,485.883L1312.71,485.883L1209.77,169.078L1479.26,-26.719Z" style="fill:rgb(197,203,199);"/>
    </g>
    <g transform="matrix(1.40084,0,0,1.24811,-412.59,592.7)">
        <path d="M1479.26,-26.719L1748.75,169.078L1645.82,485.883L1312.71,485.883L1209.77,169.078L1479.26,-26.719Z" style="fill:rgb(197,203,199);"/>
    </g>
    <g transform="matrix(1.2357,0.346286,-0.354211,1.26398,-1581.62,-882.893)">
        <path d="M1479.26,-26.719L1748.75,169.078L1645.82,485.883L1312.71,485.883L1209.77,169.078L1479.26,-26.719Z" style="fill:rgb(197,203,199);"/>
    </g>
</svg>
