<?xml version="1.0" encoding="UTF-8" standalone="no"?>
<!DOCTYPE svg PUBLIC "-//W3C//DTD SVG 1.1//EN" "http://www.w3.org/Graphics/SVG/1.1/DTD/svg11.dtd">
<svg width="100%" height="100%" viewBox="0 0 3000 3000" version="1.1" xmlns="http://www.w3.org/2000/svg" xmlns:xlink="http://www.w3.org/1999/xlink" xml:space="preserve" xmlns:serif="http://www.serif.com/" style="fill-rule:evenodd;clip-rule:evenodd;stroke-linejoin:round;stroke-miterlimit:2;">
    <g transform="matrix(5.86802,0,0,4.00054,-681.239,-998.394)">
        <g id="Ebene1">
            <rect x="112.96" y="246.935" width="517.513" height="759.194" style="fill:white;"/>
        </g>
    </g>
    <g transform="matrix(0.542513,0.542513,-0.542513,0.542513,464.187,32.7931)">
        <path d="M751.918,487.212L1237.18,785.431L1051.82,1267.96L452.012,1267.96L266.66,785.431L751.918,487.212Z" style="fill:rgb(197,203,199);"/>
    </g>
    <g transform="matrix(0.537482,0.202317,-0.270284,0.718044,1866.71,922.801)">
        <g transform="matrix(1,-2.77556e-17,0,1,-245.918,-109.977)">
            <path d="M751.918,487.212L1237.18,785.431L1051.82,1267.96L452.012,1267.96L266.66,785.431L751.918,487.212Z" style="fill:rgb(197,203,199);"/>
        </g>
        <g transform="matrix(0.558562,-0.183013,0.32663,0.558562,729.276,-501.641)">
            <path d="M751.918,487.212L1237.18,785.431L1051.82,1267.96L452.012,1267.96L266.66,785.431L751.918,487.212Z" style="fill:rgb(197,203,199);"/>
        </g>
    </g>
    <g transform="matrix(1.04304,0.279481,-0.279481,1.04304,892.257,-509.204)">
        <path d="M751.918,487.212L1237.18,785.431L1051.82,1267.96L452.012,1267.96L266.66,785.431L751.918,487.212Z" style="fill:rgb(197,203,199);"/>
    </g>
    <g transform="matrix(0.906167,0.242807,-0.260184,0.971018,24.0725,899.274)">
        <path d="M751.918,487.212L1237.18,785.431L1051.82,1267.96L452.012,1267.96L266.66,785.431L751.918,487.212Z" style="fill:rgb(197,203,199);"/>
    </g>
    <g transform="matrix(0.578459,0.124063,-0.16219,0.756226,2386.95,-401.112)">
        <path d="M751.918,487.212L1237.18,785.431L1051.82,1267.96L452.012,1267.96L266.66,785.431L751.918,487.212Z" style="fill:rgb(197,203,199);"/>
    </g>
    <g transform="matrix(1.05681,0.226656,-0.296311,1.38158,1864.66,992.595)">
        <path d="M751.918,487.212L1237.18,785.431L1051.82,1267.96L452.012,1267.96L266.66,785.431L751.918,487.212Z" style="fill:rgb(197,203,199);"/>
    </g>
    <g transform="matrix(1,0,0,1,-89.317,-220.665)">
        <path d="M2769.82,1603.58L2988.73,1740.1L2905.12,1960.99L2634.53,1960.99L2550.91,1740.1L2769.82,1603.58Z" style="fill:rgb(127,141,132);"/>
    </g>
    <g transform="matrix(-0.533199,-0.84599,0.84599,-0.533199,2360.97,4429.57)">
        <g transform="matrix(1,0,0,1,153.272,-105.236)">
            <path d="M2769.82,1603.58L2988.73,1740.1L2905.12,1960.99L2634.53,1960.99L2550.91,1740.1L2769.82,1603.58Z" style="fill:rgb(127,141,132);"/>
        </g>
        <g transform="matrix(0.177072,0.780764,-0.975234,0.221177,4868.12,-551.225)">
            <path d="M2769.82,1603.58L2988.73,1740.1L2905.12,1960.99L2634.53,1960.99L2550.91,1740.1L2769.82,1603.58Z" style="fill:rgb(127,141,132);"/>
        </g>
    </g>
    <g transform="matrix(0.955308,0.295611,-0.295611,0.955308,1341.91,109.266)">
        <path d="M736.573,1718.67L1152.51,1998.33L993.635,2450.84L479.511,2450.84L320.638,1998.33L736.573,1718.67Z" style="fill:rgb(127,141,132);"/>
    </g>
    <g transform="matrix(0.566176,0.337896,-0.354636,0.594226,1586.65,-88.7394)">
        <path d="M736.573,1718.67L1152.51,1998.33L993.635,2450.84L479.511,2450.84L320.638,1998.33L736.573,1718.67Z" style="fill:rgb(127,141,132);"/>
    </g>
    <g transform="matrix(0.646919,0.127375,-0.133685,0.67897,444.489,-1226.05)">
        <path d="M736.573,1718.67L1152.51,1998.33L993.635,2450.84L479.511,2450.84L320.638,1998.33L736.573,1718.67Z" style="fill:rgb(127,141,132);"/>
    </g>
    <g transform="matrix(0.646919,0.127375,-0.133685,0.67897,373.561,1203.57)">
        <path d="M736.573,1718.67L1152.51,1998.33L993.635,2450.84L479.511,2450.84L320.638,1998.33L736.573,1718.67Z" style="fill:rgb(127,141,132);"/>
    </g>
</svg>
