<?xml version="1.0" encoding="UTF-8" standalone="no"?>
<!DOCTYPE svg PUBLIC "-//W3C//DTD SVG 1.1//EN" "http://www.w3.org/Graphics/SVG/1.1/DTD/svg11.dtd">
<svg width="100%" height="100%" viewBox="0 0 3000 3000" version="1.1" xmlns="http://www.w3.org/2000/svg" xmlns:xlink="http://www.w3.org/1999/xlink" xml:space="preserve" xmlns:serif="http://www.serif.com/" style="fill-rule:evenodd;clip-rule:evenodd;stroke-linejoin:round;stroke-miterlimit:2;">
    <g transform="matrix(0.542513,0.542513,-0.542513,0.542513,267.164,-88.0475)">
        <path d="M751.918,487.212L1237.18,785.431L1051.82,1267.96L452.012,1267.96L266.66,785.431L751.918,487.212Z" style="fill:rgb(197,203,199);"/>
    </g>
    <g transform="matrix(0.537482,0.202317,-0.270284,0.718044,1866.71,922.801)">
        <path d="M751.918,487.212L1237.18,785.431L1051.82,1267.96L452.012,1267.96L266.66,785.431L751.918,487.212Z" style="fill:rgb(197,203,199);"/>
    </g>
    <g transform="matrix(1.04304,0.279481,-0.279481,1.04304,1002.59,-569.624)">
        <path d="M751.918,487.212L1237.18,785.431L1051.82,1267.96L452.012,1267.96L266.66,785.431L751.918,487.212Z" style="fill:rgb(197,203,199);"/>
    </g>
    <g transform="matrix(1.54223,0.413239,-0.399625,1.49142,-647.629,227.342)">
        <path d="M751.918,487.212L1237.18,785.431L1051.82,1267.96L452.012,1267.96L266.66,785.431L751.918,487.212Z" style="fill:rgb(197,203,199);"/>
    </g>
    <g transform="matrix(1.05681,0.226656,-0.296311,1.38158,2426.83,-1163.6)">
        <path d="M751.918,487.212L1237.18,785.431L1051.82,1267.96L452.012,1267.96L266.66,785.431L751.918,487.212Z" style="fill:rgb(197,203,199);"/>
    </g>
    <g transform="matrix(1.05681,0.226656,-0.296311,1.38158,2426.83,1759.67)">
        <path d="M751.918,487.212L1237.18,785.431L1051.82,1267.96L452.012,1267.96L266.66,785.431L751.918,487.212Z" style="fill:rgb(197,203,199);"/>
    </g>
    <path d="M2769.82,1603.58L2988.73,1740.1L2905.12,1960.99L2634.53,1960.99L2550.91,1740.1L2769.82,1603.58Z" style="fill:rgb(127,141,132);"/>
    <g transform="matrix(-0.533199,-0.84599,0.84599,-0.533199,2360.97,4429.57)">
        <path d="M2769.82,1603.58L2988.73,1740.1L2905.12,1960.99L2634.53,1960.99L2550.91,1740.1L2769.82,1603.58Z" style="fill:rgb(127,141,132);"/>
    </g>
    <g transform="matrix(0.955308,0.295611,-0.295611,0.955308,1546.81,471.788)">
        <path d="M736.573,1718.67L1152.51,1998.33L993.635,2450.84L479.511,2450.84L320.638,1998.33L736.573,1718.67Z" style="fill:rgb(127,141,132);"/>
    </g>
    <g transform="matrix(0.955308,0.295611,-0.295611,0.955308,1546.81,-2538.33)">
        <path d="M736.573,1718.67L1152.51,1998.33L993.635,2450.84L479.511,2450.84L320.638,1998.33L736.573,1718.67Z" style="fill:rgb(127,141,132);"/>
    </g>
    <g transform="matrix(0.566176,0.337896,-0.354636,0.594226,1586.65,-88.7394)">
        <path d="M736.573,1718.67L1152.51,1998.33L993.635,2450.84L479.511,2450.84L320.638,1998.33L736.573,1718.67Z" style="fill:rgb(127,141,132);"/>
    </g>
    <g transform="matrix(0.646919,0.127375,-0.133685,0.67897,310.514,-1407.31)">
        <path d="M736.573,1718.67L1152.51,1998.33L993.635,2450.84L479.511,2450.84L320.638,1998.33L736.573,1718.67Z" style="fill:rgb(127,141,132);"/>
    </g>
    <g transform="matrix(0.646919,0.127375,-0.133685,0.67897,310.514,1508.3)">
        <path d="M736.573,1718.67L1152.51,1998.33L993.635,2450.84L479.511,2450.84L320.638,1998.33L736.573,1718.67Z" style="fill:rgb(127,141,132);"/>
    </g>
</svg>
