<svg xmlns="http://www.w3.org/2000/svg" xmlns:xlink="http://www.w3.org/1999/xlink" version="1.1" x="0px" y="0px" viewBox="0 0 100 100" enable-background="new 0 0 100 100" xml:space="preserve" class="branch" fill="#33493b"><path class="branch" d="M90.221,24.035c-0.19-0.142-4.728-3.472-10.419-3.472c-3.945,0-7.332,1.598-9.105,2.628  c0.269-1.139,0.446-2.371,0.446-3.668c0-5.691-3.33-10.229-3.472-10.419c-0.566-0.762-1.84-0.762-2.406,0  c-0.142,0.19-3.472,4.728-3.472,10.419c0,4.117,1.739,7.621,2.756,9.322l-4.784,4.784c0.351-1.413,0.583-2.956,0.583-4.581  c0-6.732-3.939-12.1-4.106-12.324c-0.566-0.762-1.84-0.762-2.406,0c-0.167,0.225-4.106,5.592-4.106,12.324  c0,5.035,2.203,9.306,3.384,11.233l-4.475,4.475c0.538-1.866,0.917-3.957,0.917-6.185c0-7.771-4.547-13.969-4.741-14.229  c-0.283-0.381-0.729-0.604-1.203-0.604s-0.92,0.224-1.203,0.604c-0.194,0.26-4.742,6.457-4.742,14.229  c0,1.128,0.104,2.216,0.268,3.264c-1.466-5.673-4.385-9.653-4.549-9.873c-0.283-0.381-0.729-0.604-1.203-0.604  s-0.92,0.224-1.203,0.604c-0.22,0.295-5.376,7.322-5.376,16.134c0,0.96,0.071,1.894,0.18,2.805c-1.538-4.385-3.686-7.322-3.826-7.51  c-0.566-0.762-1.84-0.762-2.406,0c-0.22,0.295-5.376,7.322-5.376,16.133c0,7.99,4.228,14.495,5.182,15.861  c-3.187,5.814-3.263,12.076,0.336,15.676c0.293,0.293,0.677,0.439,1.061,0.439s0.768-0.146,1.061-0.439  c0.586-0.586,0.586-1.535,0-2.121c-3.431-3.431-2.061-10.441,2.971-16.033c2.342,1.48,8.125,4.626,15.016,4.626  c8.812,0,15.839-5.157,16.134-5.377c0.38-0.283,0.604-0.729,0.604-1.203s-0.224-0.92-0.604-1.203  c-0.188-0.14-3.124-2.287-7.51-3.825c0.911,0.109,1.845,0.18,2.805,0.18c8.812,0,15.839-5.157,16.134-5.377  c0.38-0.283,0.604-0.729,0.604-1.203s-0.224-0.92-0.604-1.203c-0.22-0.164-4.198-3.081-9.868-4.547  c1.046,0.164,2.133,0.267,3.259,0.267c7.771,0,13.969-4.548,14.229-4.741c0.38-0.283,0.604-0.729,0.604-1.203  s-0.224-0.92-0.604-1.203c-0.26-0.193-6.458-4.742-14.229-4.742c-2.228,0-4.318,0.38-6.185,0.917l4.475-4.475  c1.928,1.181,6.198,3.384,11.233,3.384c6.732,0,12.099-3.938,12.325-4.106c0.38-0.283,0.604-0.729,0.604-1.203  s-0.224-0.92-0.604-1.203c-0.226-0.168-5.593-4.106-12.325-4.106c-1.625,0-3.168,0.233-4.581,0.583l4.784-4.784  c1.701,1.018,5.204,2.756,9.321,2.756c5.691,0,10.229-3.33,10.419-3.472c0.38-0.283,0.604-0.729,0.604-1.203  S90.601,24.318,90.221,24.035z M55.042,20.5c1.017,1.92,2.307,5.046,2.307,8.548c0,3.485-1.295,6.621-2.312,8.548  c-1.017-1.92-2.307-5.047-2.307-8.548C52.73,25.562,54.025,22.426,55.042,20.5z M78.82,36.667c-1.927,1.018-5.06,2.31-8.542,2.31  s-6.616-1.293-8.542-2.31c1.927-1.018,5.06-2.31,8.542-2.31S76.894,35.65,78.82,36.667z M66.468,12.953  c0.789,1.595,1.675,3.965,1.675,6.57c0,2.609-0.888,4.982-1.678,6.576c-0.788-1.588-1.672-3.954-1.672-6.576  C64.793,16.918,65.679,14.548,66.468,12.953z M43.611,28.079c1.225,2.224,2.944,6.123,2.944,10.492c0,4.37-1.72,8.27-2.944,10.492  c-1.225-2.224-2.945-6.122-2.945-10.492C40.667,34.202,42.386,30.303,43.611,28.079z M41.682,51.713l-4.201,4.201  c0.738-2.309,1.28-4.967,1.28-7.817c0-1.353-0.132-2.656-0.338-3.907C39.32,47.601,40.798,50.297,41.682,51.713z M32.183,35.666  c1.417,2.495,3.579,7.164,3.579,12.43c0,5.265-2.162,9.934-3.579,12.429c-1.417-2.494-3.58-7.163-3.58-12.429  S30.765,38.161,32.183,35.666z M30.25,63.145l-4.197,4.197c0.738-2.31,1.28-4.967,1.28-7.818c0-0.96-0.071-1.894-0.18-2.805  C28.175,59.632,29.456,61.893,30.25,63.145z M20.754,47.095c1.417,2.494,3.58,7.163,3.58,12.429s-2.162,9.935-3.58,12.43  c-1.417-2.495-3.579-7.164-3.579-12.43C17.175,54.259,19.337,49.59,20.754,47.095z M39.802,74.532c-5.266,0-9.935-2.162-12.43-3.58  c2.495-1.417,7.164-3.579,12.43-3.579s9.935,2.162,12.429,3.579C49.736,72.37,45.067,74.532,39.802,74.532z M39.802,64.373  c-2.851,0-5.509,0.543-7.818,1.28l4.197-4.197c1.252,0.794,3.513,2.075,6.427,3.097C41.696,64.444,40.762,64.373,39.802,64.373z   M51.23,63.104c-5.266,0-9.935-2.162-12.429-3.58c2.495-1.417,7.163-3.579,12.429-3.579s9.935,2.162,12.43,3.579  C61.165,60.941,56.496,63.104,51.23,63.104z M71.246,48.096c-2.223,1.225-6.123,2.944-10.492,2.944s-8.27-1.72-10.492-2.944  c2.223-1.226,6.123-2.945,10.492-2.945S69.023,46.87,71.246,48.096z M55.131,53.282c-1.249-0.206-2.551-0.338-3.901-0.338  c-2.85,0-5.508,0.543-7.817,1.28l4.2-4.2C49.027,50.909,51.722,52.385,55.131,53.282z M79.802,26.913  c-2.606,0-4.976-0.886-6.57-1.675c1.595-0.789,3.965-1.675,6.57-1.675s4.976,0.886,6.57,1.675  C84.777,26.027,82.407,26.913,79.802,26.913z"/>

</svg>
